<svg width="50" height="50" viewBox="0 0 50 50" fill="none" xmlns="http://www.w3.org/2000/svg">
<path d="M25 45.8334C22.118 45.8334 19.4097 45.2862 16.875 44.1917C14.3403 43.0973 12.1354 41.6133 10.2604 39.7397C8.38541 37.8661 6.90138 35.6612 5.80833 33.1251C4.71527 30.589 4.16805 27.8806 4.16666 25.0001C4.16527 22.1195 4.71249 19.4112 5.80833 16.8751C6.90416 14.339 8.38819 12.1341 10.2604 10.2605C12.1326 8.38689 14.3375 6.90286 16.875 5.80841C19.4125 4.71397 22.1208 4.16675 25 4.16675C27.8792 4.16675 30.5875 4.71397 33.125 5.80841C35.6625 6.90286 37.8674 8.38689 39.7396 10.2605C41.6118 12.1341 43.0965 14.339 44.1937 16.8751C45.291 19.4112 45.8375 22.1195 45.8333 25.0001C45.8292 27.8806 45.2819 30.589 44.1917 33.1251C43.1014 35.6612 41.6174 37.8661 39.7396 39.7397C37.8618 41.6133 35.6569 43.098 33.125 44.1938C30.593 45.2897 27.8847 45.8362 25 45.8334ZM24.9479 39.5834C25.434 39.5834 25.8597 39.4015 26.225 39.0376C26.5903 38.6737 26.7722 38.248 26.7708 37.7605V36.9792C28.5069 36.6667 30 35.9897 31.25 34.948C32.5 33.9063 33.125 32.3612 33.125 30.3126C33.125 28.8542 32.7083 27.5174 31.875 26.3022C31.0417 25.0869 29.375 24.0279 26.875 23.1251C24.7917 22.4306 23.3507 21.823 22.5521 21.3022C21.7535 20.7813 21.3542 20.0695 21.3542 19.1667C21.3542 18.264 21.6757 17.5522 22.3187 17.0313C22.9618 16.5105 23.8903 16.2501 25.1042 16.2501C25.7986 16.2501 26.4062 16.3716 26.9271 16.6147C27.4479 16.8577 27.8819 17.1876 28.2292 17.6042C28.5764 18.0209 28.9674 18.307 29.4021 18.4626C29.8368 18.6181 30.2444 18.6098 30.625 18.4376C31.1458 18.2292 31.5021 17.873 31.6937 17.3688C31.8854 16.8647 31.8417 16.4049 31.5625 15.9897C31.0069 15.1911 30.3215 14.514 29.5062 13.9584C28.691 13.4029 27.8139 13.0904 26.875 13.0209V12.2397C26.875 11.7536 26.693 11.3286 26.3292 10.9647C25.9653 10.6008 25.5396 10.4181 25.0521 10.4167C24.5646 10.4154 24.1396 10.598 23.7771 10.9647C23.4146 11.3313 23.2319 11.7563 23.2292 12.2397V13.0209C21.493 13.4029 20.1389 14.1667 19.1667 15.3126C18.1944 16.4584 17.7083 17.7431 17.7083 19.1667C17.7083 20.7987 18.1861 22.1181 19.1417 23.1251C20.0972 24.132 21.5986 25.0001 23.6458 25.7292C25.8333 26.5279 27.3528 27.2397 28.2042 27.8647C29.0555 28.4897 29.4805 29.3056 29.4792 30.3126C29.4792 31.4584 29.0715 32.3008 28.2562 32.8397C27.441 33.3786 26.4597 33.6473 25.3125 33.6459C24.4097 33.6459 23.5937 33.4292 22.8646 32.9959C22.1354 32.5626 21.5278 31.9112 21.0417 31.0417C20.7639 30.5556 20.3993 30.2258 19.9479 30.0522C19.4965 29.8786 19.0451 29.8786 18.5937 30.0522C18.1076 30.2258 17.7514 30.5556 17.525 31.0417C17.2986 31.5279 17.2903 31.9966 17.5 32.448C18.0555 33.6286 18.8021 34.5924 19.7396 35.3397C20.6771 36.0869 21.8055 36.5987 23.125 36.8751V37.7605C23.125 38.2466 23.3076 38.6723 23.6729 39.0376C24.0382 39.4029 24.4632 39.5848 24.9479 39.5834Z" fill="black"/>
</svg>
