<svg width="50" height="50" viewBox="0 0 50 50" fill="none" xmlns="http://www.w3.org/2000/svg">
<path d="M41.6667 8.33329H35.0625L31.25 4.16663H18.75L14.9375 8.33329H8.33334C7.22827 8.33329 6.16846 8.77228 5.38706 9.55368C4.60566 10.3351 4.16667 11.3949 4.16667 12.5V37.5C4.16667 38.605 4.60566 39.6648 5.38706 40.4462C6.16846 41.2276 7.22827 41.6666 8.33334 41.6666H41.6667C42.7717 41.6666 43.8316 41.2276 44.613 40.4462C45.3944 39.6648 45.8333 38.605 45.8333 37.5V12.5C45.8333 11.3949 45.3944 10.3351 44.613 9.55368C43.8316 8.77228 42.7717 8.33329 41.6667 8.33329ZM41.6667 37.5H8.33334V12.5H16.7708L20.5833 8.33329H29.4167L33.2292 12.5H41.6667V37.5ZM25 14.5833C22.2373 14.5833 19.5878 15.6808 17.6343 17.6343C15.6808 19.5878 14.5833 22.2373 14.5833 25C14.5833 27.7626 15.6808 30.4121 17.6343 32.3657C19.5878 34.3192 22.2373 35.4166 25 35.4166C27.7627 35.4166 30.4122 34.3192 32.3657 32.3657C34.3192 30.4121 35.4167 27.7626 35.4167 25C35.4167 22.2373 34.3192 19.5878 32.3657 17.6343C30.4122 15.6808 27.7627 14.5833 25 14.5833ZM25 31.25C23.3424 31.25 21.7527 30.5915 20.5806 29.4194C19.4085 28.2473 18.75 26.6576 18.75 25C18.75 23.3424 19.4085 21.7526 20.5806 20.5805C21.7527 19.4084 23.3424 18.75 25 18.75C26.6576 18.75 28.2473 19.4084 29.4194 20.5805C30.5915 21.7526 31.25 23.3424 31.25 25C31.25 26.6576 30.5915 28.2473 29.4194 29.4194C28.2473 30.5915 26.6576 31.25 25 31.25Z" fill="black"/>
</svg>
