<svg width="50" height="50" viewBox="0 0 50 50" fill="none" xmlns="http://www.w3.org/2000/svg">
<g clip-path="url(#clip0_53_82)">
<path d="M37.5 34.375H42.1875V37.5H34.375V28.125H37.5V34.375ZM31.25 12.5H6.25V9.375H31.25V12.5ZM35.9375 21.875C37.8743 21.875 39.6973 22.2412 41.4062 22.9736C43.1152 23.7061 44.6045 24.7152 45.874 26.001C47.1436 27.2868 48.1445 28.776 48.877 30.4688C49.6094 32.1615 49.9837 33.9844 50 35.9375C50 37.8743 49.6338 39.6973 48.9014 41.4062C48.1689 43.1152 47.1598 44.6045 45.874 45.874C44.5882 47.1436 43.099 48.1445 41.4062 48.877C39.7135 49.6094 37.8906 49.9837 35.9375 50C34.0007 50 32.1777 49.6338 30.4688 48.9014C28.7598 48.1689 27.2705 47.1598 26.001 45.874C24.7314 44.5882 23.7305 43.099 22.998 41.4062C22.2656 39.7135 21.8913 37.8906 21.875 35.9375C21.875 34.0007 22.2412 32.1777 22.9736 30.4688C23.7061 28.7598 24.7152 27.2705 26.001 26.001C27.2868 24.7314 28.776 23.7305 30.4688 22.998C32.1615 22.2656 33.9844 21.8913 35.9375 21.875ZM35.9375 46.875C37.4512 46.875 38.8672 46.5902 40.1855 46.0205C41.5039 45.4508 42.6595 44.6696 43.6523 43.6768C44.6452 42.6839 45.4264 41.5283 45.9961 40.21C46.5658 38.8916 46.8587 37.4674 46.875 35.9375C46.875 34.4238 46.5902 33.0078 46.0205 31.6895C45.4508 30.3711 44.6696 29.2155 43.6768 28.2227C42.6839 27.2298 41.5283 26.4486 40.21 25.8789C38.8916 25.3092 37.4674 25.0163 35.9375 25C34.4238 25 33.0078 25.2848 31.6895 25.8545C30.3711 26.4242 29.2155 27.2054 28.2227 28.1982C27.2298 29.1911 26.4486 30.3467 25.8789 31.665C25.3092 32.9834 25.0163 34.4076 25 35.9375C25 37.4512 25.2848 38.8672 25.8545 40.1855C26.4242 41.5039 27.2054 42.6595 28.1982 43.6523C29.1911 44.6452 30.3467 45.4264 31.665 45.9961C32.9834 46.5658 34.4076 46.8587 35.9375 46.875ZM28.4668 18.75C26.6927 19.5312 25.0651 20.5729 23.584 21.875H6.25V18.75H28.4668ZM18.9209 28.125C18.693 28.6296 18.4896 29.1423 18.3105 29.6631C18.1315 30.1839 17.9606 30.7129 17.7979 31.25H6.25V28.125H18.9209ZM6.25 37.5H17.2607C17.3096 38.0208 17.3747 38.5417 17.4561 39.0625C17.5374 39.5833 17.6514 40.1042 17.7979 40.625H6.25V37.5ZM20.752 46.875C21.5658 48.0306 22.5098 49.0723 23.584 50H0V0H37.5V17.2607L36.7188 17.2119C36.4583 17.1956 36.1979 17.1875 35.9375 17.1875C35.6771 17.1875 35.4167 17.1956 35.1562 17.2119C34.8958 17.2282 34.6354 17.2445 34.375 17.2607V3.125H3.125V46.875H20.752Z" fill="black"/>
</g>
<defs>
<clipPath id="clip0_53_82">
<rect width="50" height="50" fill="white"/>
</clipPath>
</defs>
</svg>
