<svg width="50" height="50" viewBox="0 0 50 50" fill="none" xmlns="http://www.w3.org/2000/svg">
<rect width="50" height="50" fill="white"/>
<path d="M12.5 39.5834H18.75V29.1667C18.75 28.5765 18.95 28.082 19.35 27.6834C19.75 27.2848 20.2445 27.0848 20.8333 27.0834H29.1667C29.757 27.0834 30.2521 27.2834 30.6521 27.6834C31.0521 28.0834 31.2514 28.5779 31.25 29.1667V39.5834H37.5V20.8334L25 11.4584L12.5 20.8334V39.5834ZM8.33334 39.5834V20.8334C8.33334 20.1737 8.48126 19.5487 8.77709 18.9584C9.07293 18.3681 9.48057 17.882 10 17.5001L22.5 8.12508C23.2292 7.56953 24.0625 7.29175 25 7.29175C25.9375 7.29175 26.7708 7.56953 27.5 8.12508L40 17.5001C40.5208 17.882 40.9292 18.3681 41.225 18.9584C41.5208 19.5487 41.6681 20.1737 41.6667 20.8334V39.5834C41.6667 40.7293 41.2583 41.7105 40.4417 42.5272C39.625 43.3438 38.6445 43.7515 37.5 43.7501H29.1667C28.5764 43.7501 28.082 43.5501 27.6833 43.1501C27.2847 42.7501 27.0847 42.2556 27.0833 41.6668V31.2501H22.9167V41.6668C22.9167 42.257 22.7167 42.7522 22.3167 43.1522C21.9167 43.5522 21.4222 43.7515 20.8333 43.7501H12.5C11.3542 43.7501 10.3736 43.3424 9.55834 42.5272C8.74307 41.7119 8.33473 40.7306 8.33334 39.5834Z" fill="black"/>
</svg>
