<svg width="34" height="37" viewBox="0 0 34 37" fill="none" xmlns="http://www.w3.org/2000/svg">
<path d="M4.50001 32.5834H10.75V22.1667C10.75 21.5765 10.95 21.082 11.35 20.6834C11.75 20.2848 12.2445 20.0848 12.8333 20.0834H21.1667C21.757 20.0834 22.2521 20.2834 22.6521 20.6834C23.0521 21.0834 23.2514 21.5779 23.25 22.1667V32.5834H29.5V13.8334L17 4.45842L4.50001 13.8334V32.5834ZM0.333344 32.5834V13.8334C0.333344 13.1737 0.48126 12.5487 0.777093 11.9584C1.07293 11.3681 1.48057 10.882 2.00001 10.5001L14.5 1.12508C15.2292 0.569526 16.0625 0.291748 17 0.291748C17.9375 0.291748 18.7708 0.569526 19.5 1.12508L32 10.5001C32.5208 10.882 32.9292 11.3681 33.225 11.9584C33.5208 12.5487 33.6681 13.1737 33.6667 13.8334V32.5834C33.6667 33.7293 33.2583 34.7105 32.4417 35.5272C31.625 36.3438 30.6445 36.7515 29.5 36.7501H21.1667C20.5764 36.7501 20.082 36.5501 19.6833 36.1501C19.2847 35.7501 19.0847 35.2556 19.0833 34.6668V24.2501H14.9167V34.6668C14.9167 35.257 14.7167 35.7522 14.3167 36.1522C13.9167 36.5522 13.4222 36.7515 12.8333 36.7501H4.50001C3.35418 36.7501 2.37362 36.3424 1.55834 35.5272C0.743065 34.7119 0.334732 33.7306 0.333344 32.5834Z" fill="black"/>
</svg>
