<svg width="50" height="50" viewBox="0 0 50 50" fill="none" xmlns="http://www.w3.org/2000/svg">
<path d="M21.9792 5.27703C22.8245 4.56457 23.8945 4.17383 25 4.17383C26.1055 4.17383 27.1755 4.56457 28.0208 5.27703L42.0833 17.1416C43.1417 18.0312 43.75 19.3416 43.75 20.7249V25.1041C42.7362 24.0694 41.4372 23.3601 40.0186 23.0667C38.6001 22.7733 37.1263 22.909 35.7852 23.4566C34.4441 24.0043 33.2965 24.9389 32.4888 26.1414C31.681 27.3439 31.2498 28.7597 31.25 30.2083V31.2499C31.0125 30.0833 29.9437 29.1999 28.7146 29.1666H21.2854C20.6067 29.1845 19.9619 29.4668 19.4883 29.9532C19.0147 30.4397 18.7498 31.0919 18.75 31.7708V40.1104C18.75 41.0773 18.3659 42.0046 17.6822 42.6884C16.9984 43.3721 16.0711 43.7562 15.1042 43.7562H9.89583C8.9289 43.7562 8.00157 43.3721 7.31784 42.6884C6.63411 42.0046 6.25 41.0773 6.25 40.1104V20.7229C6.25 19.3416 6.85833 18.0312 7.91667 17.1395L21.9792 5.27703ZM43.75 30.2083C43.75 31.5896 43.2013 32.9144 42.2245 33.8911C41.2478 34.8679 39.923 35.4166 38.5417 35.4166C37.1603 35.4166 35.8356 34.8679 34.8588 33.8911C33.8821 32.9144 33.3333 31.5896 33.3333 30.2083C33.3333 28.8269 33.8821 27.5022 34.8588 26.5254C35.8356 25.5487 37.1603 24.9999 38.5417 24.9999C39.923 24.9999 41.2478 25.5487 42.2245 26.5254C43.2013 27.5022 43.75 28.8269 43.75 30.2083ZM47.9167 41.4062C47.9167 44.6479 45.2375 47.9166 38.5417 47.9166C31.8458 47.9166 29.1667 44.6604 29.1667 41.4062V41.1916C29.1667 39.1499 30.8208 37.4999 32.8604 37.4999H44.2229C46.2646 37.4999 47.9167 39.152 47.9167 41.1916V41.4062Z" fill="black"/>
</svg>
