<svg width="50" height="50" viewBox="0 0 50 50" fill="none" xmlns="http://www.w3.org/2000/svg">
<path d="M45.8333 45.8333H4.16667M4.16667 22.9167L21.0958 9.375C22.204 8.48852 23.5809 8.00557 25 8.00557C26.4191 8.00557 27.796 8.48852 28.9042 9.375L45.8333 22.9167M32.2917 11.4583V7.29167C32.2917 7.0154 32.4014 6.75045 32.5968 6.5551C32.7921 6.35975 33.0571 6.25 33.3333 6.25H38.5417C38.8179 6.25 39.0829 6.35975 39.2782 6.5551C39.4736 6.75045 39.5833 7.0154 39.5833 7.29167V17.7083M8.33334 45.8333V19.7917M41.6667 45.8333V19.7917" stroke="black" stroke-width="1.5" stroke-linecap="round"/>
<path d="M31.25 45.8333V35.4167C31.25 32.4708 31.25 30.9979 30.3333 30.0833C29.4208 29.1667 27.9479 29.1667 25 29.1667C22.0521 29.1667 20.5812 29.1667 19.6667 30.0833C18.75 30.9958 18.75 32.4688 18.75 35.4167V45.8333M29.1667 19.7917C29.1667 20.8967 28.7277 21.9565 27.9463 22.7379C27.1649 23.5193 26.1051 23.9583 25 23.9583C23.8949 23.9583 22.8351 23.5193 22.0537 22.7379C21.2723 21.9565 20.8333 20.8967 20.8333 19.7917C20.8333 18.6866 21.2723 17.6268 22.0537 16.8454C22.8351 16.064 23.8949 15.625 25 15.625C26.1051 15.625 27.1649 16.064 27.9463 16.8454C28.7277 17.6268 29.1667 18.6866 29.1667 19.7917Z" stroke="black" stroke-width="1.5"/>
</svg>
