<svg width="50" height="50" viewBox="0 0 50 50" fill="none" xmlns="http://www.w3.org/2000/svg">
<path d="M39.0625 50C41.9633 50 44.7453 48.8477 46.7965 46.7965C48.8477 44.7453 50 41.9633 50 39.0625C50 36.1617 48.8477 33.3797 46.7965 31.3285C44.7453 29.2773 41.9633 28.125 39.0625 28.125C36.1617 28.125 33.3797 29.2773 31.3285 31.3285C29.2773 33.3797 28.125 36.1617 28.125 39.0625C28.125 41.9633 29.2773 44.7453 31.3285 46.7965C33.3797 48.8477 36.1617 50 39.0625 50ZM40.1688 31.7062L44.8563 36.3937C45.1496 36.6871 45.3145 37.0851 45.3145 37.5C45.3145 37.9149 45.1496 38.3129 44.8563 38.6063C44.5629 38.8996 44.1649 39.0645 43.75 39.0645C43.3351 39.0645 42.9371 38.8996 42.6437 38.6063L40.625 36.5844V45.3125C40.625 45.7269 40.4604 46.1243 40.1674 46.4174C39.8743 46.7104 39.4769 46.875 39.0625 46.875C38.6481 46.875 38.2507 46.7104 37.9576 46.4174C37.6646 46.1243 37.5 45.7269 37.5 45.3125V36.5844L35.4813 38.6063C35.1879 38.8996 34.7899 39.0645 34.375 39.0645C33.9601 39.0645 33.5621 38.8996 33.2687 38.6063C32.9754 38.3129 32.8105 37.9149 32.8105 37.5C32.8105 37.0851 32.9754 36.6871 33.2687 36.3937L37.9562 31.7062C38.1014 31.5607 38.2738 31.4453 38.4636 31.3665C38.6535 31.2878 38.857 31.2472 39.0625 31.2472C39.268 31.2472 39.4715 31.2878 39.6614 31.3665C39.8512 31.4453 40.0236 31.5607 40.1688 31.7062ZM34.375 15.625C34.375 18.1114 33.3873 20.496 31.6291 22.2541C29.871 24.0123 27.4864 25 25 25C22.5136 25 20.129 24.0123 18.3709 22.2541C16.6127 20.496 15.625 18.1114 15.625 15.625C15.625 13.1386 16.6127 10.754 18.3709 8.99587C20.129 7.23772 22.5136 6.25 25 6.25C27.4864 6.25 29.871 7.23772 31.6291 8.99587C33.3873 10.754 34.375 13.1386 34.375 15.625Z" fill="black"/>
<path d="M6.25 40.625C6.25 43.75 9.375 43.75 9.375 43.75H25.8C25.2692 42.2442 24.9986 40.6591 25 39.0625C25 37.053 25.4306 35.0668 26.2629 33.2378C27.0952 31.4088 28.3099 29.7794 29.825 28.4594C28.3667 28.2406 26.7583 28.1292 25 28.125C9.375 28.125 6.25 37.5 6.25 40.625Z" fill="black"/>
</svg>
