<svg width="50" height="50" viewBox="0 0 50 50" fill="none" xmlns="http://www.w3.org/2000/svg">
<path d="M25 25C22.7083 25 20.7465 24.1841 19.1146 22.5521C17.4826 20.9202 16.6667 18.9584 16.6667 16.6667C16.6667 14.375 17.4826 12.4132 19.1146 10.7813C20.7465 9.14935 22.7083 8.33337 25 8.33337C27.2917 8.33337 29.2535 9.14935 30.8854 10.7813C32.5174 12.4132 33.3333 14.375 33.3333 16.6667C33.3333 18.9584 32.5174 20.9202 30.8854 22.5521C29.2535 24.1841 27.2917 25 25 25ZM8.33333 37.5V35.8334C8.33333 34.6528 8.6375 33.5681 9.24583 32.5792C9.85416 31.5903 10.6611 30.8348 11.6667 30.3125C13.8194 29.2362 16.0069 28.4292 18.2292 27.8917C20.4514 27.3542 22.7083 27.0848 25 27.0834C27.2917 27.082 29.5486 27.3514 31.7708 27.8917C33.993 28.432 36.1805 29.2389 38.3333 30.3125C39.3403 30.8334 40.1479 31.5889 40.7562 32.5792C41.3646 33.5695 41.668 34.6542 41.6667 35.8334V37.5C41.6667 38.6459 41.259 39.6271 40.4437 40.4438C39.6285 41.2605 38.6472 41.6681 37.5 41.6667H12.5C11.3542 41.6667 10.3736 41.2591 9.55833 40.4438C8.74305 39.6285 8.33472 38.6473 8.33333 37.5Z" fill="black"/>
</svg>
