<svg width="50" height="50" viewBox="0 0 50 50" fill="none" xmlns="http://www.w3.org/2000/svg">
<path d="M37.5 27.0793H27.0833V37.4959C27.0833 38.0485 26.8638 38.5784 26.4731 38.9691C26.0824 39.3598 25.5525 39.5793 25 39.5793C24.4475 39.5793 23.9176 39.3598 23.5269 38.9691C23.1361 38.5784 22.9167 38.0485 22.9167 37.4959V27.0793H12.5C11.9475 27.0793 11.4176 26.8598 11.0269 26.4691C10.6362 26.0784 10.4167 25.5485 10.4167 24.9959C10.4167 24.4434 10.6362 23.9135 11.0269 23.5228C11.4176 23.1321 11.9475 22.9126 12.5 22.9126H22.9167V12.4959C22.9167 11.9434 23.1361 11.4135 23.5269 11.0228C23.9176 10.6321 24.4475 10.4126 25 10.4126C25.5525 10.4126 26.0824 10.6321 26.4731 11.0228C26.8638 11.4135 27.0833 11.9434 27.0833 12.4959V22.9126H37.5C38.0525 22.9126 38.5824 23.1321 38.9731 23.5228C39.3638 23.9135 39.5833 24.4434 39.5833 24.9959C39.5833 25.5485 39.3638 26.0784 38.9731 26.4691C38.5824 26.8598 38.0525 27.0793 37.5 27.0793Z" fill="black"/>
</svg>
